<svg width="185" height="48" viewBox="0 0 185 48" fill="none" xmlns="http://www.w3.org/2000/svg">
<mask id="mask0_2012_3994" style="mask-type:luminance" maskUnits="userSpaceOnUse" x="12" y="3" width="35" height="35">
<path d="M46.9155 3.95312H12.9546V37.9531H46.9155V3.95312Z" fill="white"/>
</mask>
<g mask="url(#mask0_2012_3994)">
<path d="M30.65 14.5977H15.4385L14.1752 23.5934H20.6957L18.756 37.3513H21.7546C25.0668 37.3513 28.1289 34.6738 28.594 31.3718L29.6898 23.5934H37.375L37.5159 22.5931C38.136 18.1765 35.0616 14.5977 30.65 14.5977Z" fill="black"/>
<path d="M39.7217 4.55273L39.9313 6.11903C40.3717 9.4192 42.9652 12.0156 46.2615 12.4565L47.8261 12.6664L46.2615 12.8763C42.9652 13.3173 40.3717 15.9137 39.9313 19.2139L39.7217 20.7801L39.512 19.2139C39.0715 15.9137 36.4782 13.3173 33.1817 12.8763L31.6172 12.6664L33.1817 12.4565C36.4782 12.0156 39.0715 9.4192 39.512 6.11903L39.7217 4.55273Z" fill="#2C53FF"/>
</g>
<path d="M66.2224 16.056H51.7415L51 18.6255H56.3455L54.6743 33.3244H58.8308L60.5136 18.6255H65.4694L66.2224 16.056ZM75.5295 22.2729C75.0787 21.7653 74.4991 21.3602 73.7923 21.0527C73.0855 20.7469 72.2383 20.593 71.2492 20.593C70.4879 20.593 69.7662 20.6873 69.0826 20.8757C68.4005 21.0643 67.7681 21.3255 67.1868 21.6594C66.6055 21.9935 66.0804 22.392 65.6097 22.8565C65.1391 23.3196 64.7378 23.8305 64.4092 24.3893C64.0789 24.9482 63.8262 25.5402 63.6495 26.1684C63.4728 26.7967 63.3853 27.4416 63.3853 28.1013C63.3853 28.8007 63.491 29.4785 63.7024 30.135C63.9138 30.7914 64.2457 31.3735 64.6965 31.8793C65.1473 32.3869 65.7286 32.792 66.4387 33.0997C67.1488 33.4055 67.9993 33.5593 68.9868 33.5593C70.1097 33.5593 71.1501 33.3593 72.1128 32.9573C73.0739 32.5572 73.9062 32.0149 74.6081 31.3304C75.3099 30.6476 75.8598 29.8539 76.2561 28.9494C76.6525 28.0466 76.8506 27.0877 76.8506 26.0742C76.8506 25.3665 76.7433 24.6836 76.527 24.0239C76.3106 23.3642 75.9771 22.7806 75.5262 22.2729H75.5295ZM72.3572 28.3079C72.2004 28.8619 71.989 29.3413 71.7215 29.7464C71.4539 30.1515 71.1468 30.4657 70.7967 30.6888C70.4466 30.9121 70.085 31.0246 69.7084 31.0246C69.3864 31.0246 69.0974 30.9435 68.8431 30.7831C68.5872 30.6228 68.3725 30.3946 68.1958 30.1003C68.0191 29.806 67.8837 29.4554 67.7895 29.052C67.6954 28.6469 67.6475 28.1972 67.6475 27.7028C67.6475 27.0662 67.7218 26.4711 67.8705 25.917C68.0191 25.3631 68.2238 24.8805 68.4831 24.4671C68.7424 24.0536 69.0462 23.728 69.3947 23.4882C69.7431 23.2484 70.118 23.1293 70.5193 23.1293C70.8561 23.1293 71.155 23.2154 71.4143 23.3889C71.6736 23.5627 71.8916 23.7973 72.0683 24.0967C72.245 24.3959 72.3754 24.7515 72.4629 25.1632C72.5488 25.5765 72.5917 26.0179 72.5917 26.4892C72.5917 27.1489 72.5125 27.7557 72.3556 28.3095L72.3572 28.3079ZM86.3198 28.6436C86.1084 28.9346 85.8888 29.2107 85.6609 29.4752C85.433 29.7381 85.2018 29.968 84.9657 30.1647C84.7295 30.3615 84.4934 30.5186 84.2539 30.636C84.0145 30.7534 83.7816 30.8129 83.5537 30.8129C83.349 30.8129 83.169 30.7683 83.0121 30.6773C82.8552 30.5865 82.7231 30.4591 82.6174 30.2937C82.5117 30.1284 82.4391 29.9317 82.3994 29.7051C82.3598 29.4769 82.3565 29.2289 82.3879 28.9627L83.3176 20.8295H79.2204L78.2543 29.3628C78.1833 29.9449 78.2048 30.4905 78.3187 31.0014C78.4327 31.5124 78.6259 31.9554 78.9017 32.3341C79.1759 32.7111 79.5277 33.0103 79.9554 33.2303C80.3831 33.4501 80.8835 33.5609 81.4565 33.5609C81.9585 33.5609 82.4242 33.4798 82.8519 33.3195C83.2796 33.1591 83.6859 32.9425 84.0706 32.6713C84.4554 32.4002 84.822 32.0894 85.1721 31.7404C85.5205 31.3917 85.869 31.0279 86.2141 30.6509L86.3792 33.3261H89.8752L91.3003 20.8311H87.2033L86.3198 28.6453V28.6436ZM100.424 20.593C99.7025 20.593 98.9991 20.6807 98.317 20.8575C97.635 21.0346 96.9893 21.2842 96.38 21.6066C95.7723 21.9289 95.2141 22.3225 94.7088 22.7855C94.2018 23.2484 93.7675 23.7659 93.4025 24.3348C93.0376 24.9052 92.7536 25.5253 92.5488 26.1966C92.344 26.8679 92.2433 27.5738 92.2433 28.313C92.2433 29.052 92.3556 29.7878 92.5785 30.4292C92.8014 31.0691 93.1235 31.6214 93.5446 32.0861C93.964 32.5489 94.4759 32.9111 95.0803 33.1707C95.6847 33.4303 96.3717 33.5593 97.1413 33.5593C97.9108 33.5593 98.677 33.4204 99.4664 33.141C100.256 32.8616 101.03 32.4167 101.792 31.8034V30.1416C101.321 30.3929 100.895 30.5681 100.515 30.6657C100.134 30.7633 99.767 30.8129 99.4136 30.8129C99.0139 30.8129 98.6391 30.7518 98.289 30.631C97.9389 30.5087 97.635 30.3169 97.3774 30.054C97.1181 29.7912 96.915 29.4505 96.7647 29.0338C96.6161 28.6172 96.5418 28.1178 96.5418 27.5375C96.5418 26.8695 96.6392 26.2627 96.8358 25.717C97.0323 25.1714 97.2915 24.7067 97.6136 24.3264C97.9356 23.9463 98.3088 23.6502 98.7315 23.4419C99.1559 23.2335 99.5952 23.1293 100.049 23.1293C100.474 23.1293 100.863 23.2022 101.22 23.3476C101.577 23.4931 101.877 23.6403 102.12 23.7891L102.356 23.6718L103.24 21.0544C102.698 20.874 102.186 20.7518 101.704 20.6889C101.222 20.6262 100.796 20.5946 100.428 20.5946L100.424 20.593ZM115.947 21.8183C115.668 21.4413 115.308 21.1421 114.864 20.9221C114.42 20.7021 113.905 20.5913 113.317 20.5913C112.806 20.5913 112.334 20.6724 111.898 20.8328C111.462 20.9931 111.052 21.2048 110.668 21.4628C110.283 21.7224 109.921 22.0166 109.584 22.3474C109.247 22.678 108.921 23.0121 108.607 23.3493L109.631 14.439H105.534L103.379 33.3228H107.476L108.371 25.5086C108.567 25.2259 108.779 24.9548 109.006 24.6952C109.234 24.4356 109.469 24.2059 109.713 24.0057C109.956 23.8057 110.205 23.6469 110.461 23.5278C110.716 23.4106 110.973 23.3509 111.232 23.3509C111.672 23.3509 112.004 23.5196 112.227 23.8586C112.45 24.1958 112.531 24.6407 112.468 25.1912L111.526 33.3244H115.624L116.601 24.7911C116.664 24.2092 116.641 23.6634 116.53 23.1526C116.42 22.6417 116.226 22.1985 115.947 21.82V21.8183ZM122.906 23.4865C123.052 23.3807 123.238 23.2948 123.466 23.2269C123.694 23.1609 123.968 23.126 124.29 23.126C124.721 23.126 125.177 23.1906 125.656 23.3212C126.135 23.4502 126.605 23.6452 127.068 23.9048L127.315 23.7758L128.21 21.1122C127.763 20.9469 127.248 20.8196 126.663 20.7286C126.078 20.6377 125.484 20.593 124.88 20.593C123.907 20.593 123.037 20.7054 122.272 20.9287C121.507 21.152 120.86 21.4595 120.33 21.848C119.8 22.2366 119.395 22.6896 119.118 23.2038C118.839 23.718 118.7 24.267 118.7 24.8473C118.7 25.4277 118.829 25.932 119.088 26.3322C119.347 26.7323 119.671 27.0794 120.059 27.3687C120.447 27.6599 120.87 27.9045 121.324 28.1062C121.78 28.3062 122.201 28.4998 122.589 28.6832C122.977 28.8685 123.301 29.0586 123.56 29.2554C123.819 29.4521 123.948 29.6836 123.948 29.9515C123.948 30.2425 123.795 30.4938 123.489 30.7055C123.184 30.9171 122.736 31.0229 122.147 31.0229C121.557 31.0229 120.994 30.922 120.386 30.722C119.778 30.5219 119.184 30.2375 118.603 29.8671L118.367 29.9961L117.472 32.6598C118.084 32.959 118.766 33.1822 119.519 33.331C120.272 33.4798 121.019 33.5543 121.755 33.5543C122.759 33.5543 123.636 33.4286 124.386 33.1773C125.136 32.926 125.76 32.5954 126.257 32.187C126.756 31.7786 127.129 31.3172 127.375 30.8013C127.623 30.2871 127.746 29.7695 127.746 29.2521C127.746 28.6865 127.618 28.2071 127.358 27.8136C127.099 27.4201 126.774 27.0844 126.381 26.805C125.988 26.5256 125.565 26.2891 125.109 26.0924C124.653 25.8956 124.231 25.7071 123.838 25.527C123.445 25.3466 123.119 25.1582 122.86 24.9614C122.601 24.7647 122.472 24.5249 122.472 24.2422C122.472 24.1083 122.507 23.9743 122.578 23.8421C122.649 23.7081 122.756 23.5891 122.901 23.4832L122.906 23.4865ZM145.576 24.1644C145.434 24.5266 145.296 24.8871 145.159 25.249C145.022 25.6112 144.881 25.9766 144.741 26.3454L144.082 28.2319H143.846L143.646 26.3454L143.304 24.0239C143.084 22.6879 142.866 21.3619 142.65 20.0458C142.434 18.7296 142.216 17.4003 141.996 16.056H136.134L132.79 33.3244H136.31L138.087 22.1737L138.323 20.4409C138.363 20.135 138.399 19.8275 138.436 19.5216C138.47 19.2157 138.508 18.9049 138.548 18.5907H138.83C138.87 18.8966 138.911 19.2025 138.954 19.5034C138.997 19.806 139.042 20.1069 139.09 20.4045L139.349 22.1027L141.256 32.9823H145.06L149.439 22.0796C149.479 22.0018 149.515 21.9223 149.551 21.8431C149.586 21.7653 149.624 21.686 149.664 21.6066L150.735 18.5891H151.006L150.689 21.7009L149.925 33.3228H154.41L155.011 16.0544H148.76L145.581 24.1644H145.576ZM166.491 20.775C166.024 20.6526 165.512 20.593 164.955 20.593C164.288 20.593 163.621 20.6807 162.954 20.8575C162.287 21.0346 161.649 21.2876 161.042 21.6182C160.434 21.9489 159.866 22.3491 159.341 22.8202C158.816 23.2915 158.36 23.8189 157.975 24.3992C157.59 24.9812 157.288 25.6128 157.068 26.2973C156.849 26.9802 156.738 27.6995 156.738 28.4552C156.738 29.138 156.826 29.7911 157.002 30.4111C157.179 31.0328 157.433 31.5735 157.767 32.0382C158.1 32.5011 158.508 32.8715 158.991 33.1459C159.473 33.4204 160.021 33.5593 160.632 33.5593C161.056 33.5593 161.466 33.4897 161.862 33.3525C162.259 33.2153 162.645 33.0269 163.022 32.7871C163.398 32.5473 163.763 32.2646 164.116 31.9389C164.47 31.6131 164.818 31.261 165.163 30.884L165.352 33.3244H168.836L170.296 20.5236L167.824 21.2659C167.399 21.061 166.955 20.899 166.488 20.7766L166.491 20.775ZM165.249 28.961C165.069 29.2123 164.876 29.4505 164.673 29.6737C164.468 29.8968 164.258 30.0937 164.044 30.2623C163.827 30.4309 163.606 30.5648 163.378 30.6624C163.15 30.76 162.923 30.8096 162.696 30.8096C162.186 30.8096 161.778 30.5599 161.473 30.0607C161.167 29.5613 161.014 28.8768 161.014 28.0037C161.014 27.344 161.106 26.7173 161.291 26.1238C161.476 25.5303 161.725 25.0127 162.039 24.5678C162.353 24.1248 162.721 23.7725 163.145 23.5129C163.57 23.2534 164.017 23.1244 164.488 23.1244C164.716 23.1244 164.949 23.1559 165.188 23.2187C165.428 23.2816 165.657 23.379 165.877 23.5129L165.253 28.9593L165.249 28.961ZM177.129 15.3004C176.949 15.1351 176.73 15.0061 176.47 14.9119C176.211 14.8176 175.921 14.7697 175.599 14.7697C175.222 14.7697 174.87 14.8308 174.545 14.9515C174.22 15.0739 173.937 15.2359 173.698 15.441C173.458 15.646 173.27 15.8857 173.133 16.1602C172.996 16.4347 172.927 16.7306 172.927 17.0448C172.927 17.2961 172.974 17.5325 173.069 17.7525C173.163 17.9723 173.3 18.1658 173.481 18.3295C173.661 18.4948 173.879 18.6238 174.135 18.718C174.39 18.8123 174.684 18.8602 175.012 18.8602C175.389 18.8602 175.741 18.8007 176.066 18.6833C176.391 18.5659 176.675 18.4039 176.92 18.2005C177.162 17.9955 177.354 17.7574 177.491 17.4813C177.628 17.2068 177.698 16.9108 177.698 16.5967C177.698 16.3371 177.648 16.0974 177.551 15.8775C177.453 15.6575 177.313 15.4641 177.133 15.3004H177.129ZM171.373 33.3228H175.47L176.895 20.8278H172.798L171.373 33.3228ZM180.145 14.439L177.99 33.3228H182.086L184.241 14.439H180.145Z" fill="black"/>
</svg>
